<svg width="40" height="33" viewBox="0 0 40 33" fill="none" xmlns="http://www.w3.org/2000/svg">
<path d="M39.4511 12.091L25.1602 2.80526C24.967 2.68001 24.7185 2.68001 24.5258 2.80526L22.4787 4.13564L16.2589 0.0939375C16.0663 -0.0313125 15.8178 -0.0313125 15.625 0.0939375L1.47341 9.28918C1.20399 9.46418 1.12756 9.82451 1.30255 10.0939C1.47745 10.3631 1.83789 10.4398 2.10731 10.2649L2.86925 9.76959V21.8394H0.81448C0.3652 21.8394 0 22.205 0 22.6538V31.6333C0 32.0826 0.3652 32.4478 0.81448 32.4478H37.0691C37.6036 32.4478 38.0387 32.0131 38.0387 31.4782V28.7128C38.0387 28.3916 37.7782 28.131 37.4569 28.131C37.1354 28.131 36.8752 28.3916 36.8752 28.7128V31.2843H35.5274V20.5118C35.5274 20.0629 35.1622 19.6973 34.7129 19.6973H14.9731C14.5238 19.6973 14.1586 20.0629 14.1586 20.5118V31.2843H12.8107V11.8049L24.843 3.98701L36.8752 11.8049V25.9978C36.8752 26.319 37.1354 26.5796 37.457 26.5796C37.7782 26.5796 38.0387 26.319 38.0387 25.9978V12.5609L38.8169 13.0667C38.9151 13.1301 39.0249 13.1608 39.1336 13.1608C39.3239 13.1608 39.5106 13.0675 39.6217 12.8958C39.797 12.6263 39.7202 12.2659 39.4511 12.091ZM25.4247 20.8608H34.3639V21.8018H25.4247V20.8608ZM25.4247 23.0429H34.3639V24.0614H25.4247V23.0429ZM25.4247 25.2249H34.3639V31.2843H25.4247V25.2249ZM15.3221 20.8608H24.2612V21.8018H15.3221V20.8608ZM15.3221 25.2249H19.0046C19.3258 25.2249 19.5864 24.9644 19.5864 24.6431C19.5864 24.322 19.3257 24.0614 19.0046 24.0614H15.3221V23.0429H24.2612V24.0614H21.7196C21.3984 24.0614 21.1378 24.322 21.1378 24.6431C21.1378 24.9644 21.3984 25.2249 21.7196 25.2249H24.2612V31.2843H15.3221V25.2249ZM4.733 31.2843H1.16355V27.7254H4.733V31.2843ZM4.733 26.5618H1.16355V23.0029H4.733V26.5618ZM10.2348 12.091C9.96566 12.2659 9.88892 12.6263 10.0639 12.8958C10.2392 13.1653 10.5996 13.2416 10.8687 13.0667L11.6472 12.5609V31.2843H10.6299V30.8847C10.6299 30.5636 10.3693 30.3029 10.0481 30.3029C9.72655 30.3029 9.46633 30.5636 9.46633 30.8847V31.2843H5.89655V27.7253H9.46631V28.1698C9.46631 28.4909 9.72694 28.7515 10.0481 28.7515C10.3693 28.7515 10.6299 28.4909 10.6299 28.1698V27.3763C10.6299 26.9274 10.2646 26.5618 9.81537 26.5618H5.89655V22.6538C5.89655 22.205 5.53125 21.8394 5.08206 21.8394H4.03281V9.01365L15.9418 1.27569L21.4109 4.82932L10.2348 12.091Z" fill="#B777BE"/>
</svg>
